<?xml version="1.0" encoding="utf-8"?>
<!-- Generator: Adobe Illustrator 16.0.0, SVG Export Plug-In . SVG Version: 6.00 Build 0)  -->
<!DOCTYPE svg PUBLIC "-//W3C//DTD SVG 1.1//EN" "http://www.w3.org/Graphics/SVG/1.1/DTD/svg11.dtd">
<svg version="1.1" id="Layer_1" xmlns="http://www.w3.org/2000/svg" xmlns:xlink="http://www.w3.org/1999/xlink" x="0px" y="0px"
	 width="66px" height="66px" viewBox="0 0 66 66" enable-background="new 0 0 66 66" xml:space="preserve">
<g>
	<g>
		<polygon fill="#5C777A" points="37.412,53.078 28.589,53.078 29.659,45.078 36.343,45.078 		"/>
		<path fill="#B5C6C6" d="M64,44.695c0,1.316-1.066,2.383-2.381,2.383H4.381C3.066,47.078,2,46.012,2,44.695V8.461
			c0-1.316,1.066-2.383,2.381-2.383h57.238C62.934,6.078,64,7.145,64,8.461V44.695z"/>
		<path fill="#244B54" d="M61.619,6.078H4.381C3.067,6.078,2,7.301,2,8.615v32.463h62V8.615C64,7.301,62.934,6.078,61.619,6.078z"/>
		<g>
			<g>
				<path fill="#FDFFFF" d="M60.266,12.578c0,1.4-1.138,2.5-2.54,2.5H6.894c-1.398,0-1.138-1.1-1.138-2.5l0,0
					c0-1.402-0.261-2.5,1.138-2.5h50.832C59.128,10.078,60.266,11.176,60.266,12.578L60.266,12.578z"/>
				<path fill="#E6EFEF" d="M5.756,12.537L5.756,12.537c0-1.402-0.261-2.459,1.138-2.459h50.832c1.402,0,2.54,1.096,2.54,2.498l0,0"
					/>
			</g>
			<path fill="#5C777A" d="M16.973,11.379c-0.029-0.045-0.082-0.068-0.135-0.068h-0.352c-0.073,0-0.142,0.051-0.162,0.121
				l-0.28,0.982c-0.003,0.006-0.003,0.014-0.004,0.016c-0.003-0.006-0.005-0.016-0.009-0.021l-0.303-0.98
				c-0.021-0.068-0.086-0.117-0.161-0.117h-0.3c-0.072,0-0.137,0.049-0.16,0.117l-0.322,1.014c0,0,0,0-0.002,0.002
				c0-0.006,0-0.012-0.003-0.014l-0.257-0.992c-0.021-0.074-0.086-0.127-0.166-0.127h-0.362c-0.032,0-0.065,0.012-0.093,0.031
				c-0.027-0.02-0.059-0.031-0.091-0.031h-0.351c-0.076,0-0.145,0.051-0.164,0.121l-0.28,0.982
				c-0.002,0.006-0.002,0.014-0.004,0.016c0-0.006-0.002-0.016-0.006-0.021l-0.306-0.98c-0.02-0.068-0.087-0.117-0.161-0.117h-0.297
				c-0.073,0-0.139,0.049-0.159,0.117l-0.326,1.014c0,0,0,0,0,0.002c0-0.006-0.003-0.012-0.003-0.014l-0.26-0.992
				c-0.018-0.074-0.086-0.127-0.165-0.127h-0.362c-0.033,0-0.062,0.012-0.092,0.031c-0.026-0.02-0.058-0.031-0.091-0.031h-0.352
				c-0.076,0-0.142,0.051-0.162,0.121l-0.28,0.982c0,0.006-0.003,0.014-0.003,0.016c-0.002-0.006-0.006-0.016-0.01-0.021
				l-0.301-0.98c-0.021-0.068-0.09-0.117-0.163-0.117H9.218c-0.075,0-0.142,0.049-0.161,0.117l-0.322,1.014c0,0,0,0,0,0.002
				C8.73,12.438,8.73,12.432,8.728,12.43l-0.257-0.992c-0.02-0.074-0.086-0.127-0.162-0.127H7.941c-0.051,0-0.104,0.023-0.133,0.068
				c-0.033,0.041-0.042,0.098-0.026,0.15l0.589,1.955c0.023,0.068,0.087,0.119,0.161,0.119h0.324c0.072,0,0.135-0.047,0.161-0.113
				l0.313-0.93c0.009-0.023,0.015-0.047,0.022-0.068c0.006,0.018,0.014,0.041,0.017,0.061l0.3,0.936
				c0.023,0.068,0.089,0.115,0.161,0.115h0.323c0.072,0,0.138-0.047,0.161-0.115l0.559-1.738l0.524,1.734
				c0.02,0.068,0.086,0.119,0.161,0.119h0.323c0.072,0,0.135-0.047,0.161-0.113l0.313-0.93c0.007-0.023,0.016-0.047,0.02-0.068
				c0.008,0.018,0.016,0.041,0.021,0.061l0.3,0.936c0.021,0.068,0.086,0.115,0.159,0.115h0.325c0.072,0,0.135-0.047,0.16-0.115
				L13.9,11.75l0.524,1.734c0.019,0.068,0.087,0.119,0.16,0.119h0.321c0.074,0,0.139-0.047,0.162-0.113l0.316-0.93
				c0.008-0.023,0.014-0.047,0.021-0.068c0.006,0.018,0.01,0.041,0.019,0.061l0.297,0.936c0.023,0.068,0.089,0.115,0.162,0.115
				h0.324c0.074,0,0.138-0.047,0.157-0.115l0.634-1.959C17.016,11.477,17.007,11.42,16.973,11.379z"/>
		</g>
		<path fill="#B5C6C6" d="M44,53.307c0,0.979-0.792,1.771-1.77,1.771H23.77c-0.978,0-1.77-0.793-1.77-1.771V52.85
			c0-0.979,0.792-1.771,1.77-1.771H42.23c0.978,0,1.77,0.793,1.77,1.771V53.307z"/>
		<circle fill="#5C777A" cx="33.001" cy="43.523" r="1.316"/>
	</g>
	<g>
		<g>
			<g>
				<circle fill="#1BCEB8" cx="50.167" cy="46.09" r="13.833"/>
				<path fill="#09ADB5" d="M50.166,32.256C57.807,32.256,64,38.451,64,46.09s-6.193,13.832-13.834,13.832"/>
				<path fill="#0DBFBA" d="M40.385,36.307c5.402-5.402,14.16-5.4,19.564,0.002c5.4,5.402,5.4,14.16,0,19.562"/>
			</g>
		</g>
		<g>
			<g>
				<path fill="#EEFFFF" d="M50.145,52.736c-1.104,0-2-0.896-2-2v-9.295c0-1.104,0.896-2,2-2s2,0.896,2,2v9.295
					C52.145,51.84,51.249,52.736,50.145,52.736z"/>
			</g>
			<g>
				<path fill="#EEFFFF" d="M54.814,48.078H45.52c-1.105,0-2-0.896-2-2c0-1.105,0.895-2,2-2h9.295c1.104,0,2,0.895,2,2
					C56.814,47.182,55.919,48.078,54.814,48.078z"/>
			</g>
		</g>
	</g>
</g>
</svg>
